<svg width="28" height="28" viewBox="0 0 28 28" fill="none" xmlns="http://www.w3.org/2000/svg">
<path d="M11 10.0625H13.625V10.9375H11V10.0625Z" fill="#FAA352"/>
<path d="M23.6875 11.8125H23.25V10.5C23.25 9.77637 22.6611 9.1875 21.9375 9.1875C21.2139 9.1875 20.625 9.77637 20.625 10.5V11.893C20.1171 12.0741 19.75 12.5554 19.75 13.125V14.1501C19.75 14.7346 19.9779 15.2841 20.3909 15.6971L20.5939 15.9001L20.2614 17.8946C19.1756 15.4993 17.0318 13.7594 14.4212 13.1933L14.2462 12.4946C15.2818 12.1113 16.0531 11.1851 16.215 10.0621H16.25C17.2151 10.0621 18 9.27719 18 8.31206C18 7.95506 17.8915 7.62387 17.7078 7.34694L17.8473 6.78912C17.9488 6.38356 18.0004 5.96663 18.0004 5.54925C18 2.73044 15.7071 0.4375 12.8878 0.4375H11.7368C8.91794 0.4375 6.625 2.73044 6.625 5.54969C6.625 5.96706 6.67619 6.384 6.77813 6.78956L6.91769 7.34781C6.7335 7.62431 6.625 7.95594 6.625 8.3125C6.625 9.27763 7.40987 10.0625 8.375 10.0625H8.41C8.57187 11.1856 9.34319 12.1113 10.3787 12.495L10.2059 13.1854C6.64906 13.8403 4 16.9816 4 20.6251V22.75C4 25.4034 6.15906 27.5625 8.8125 27.5625H12.75C13.618 27.5625 14.3346 26.9264 14.4711 26.0969C14.9874 25.9118 15.5259 25.8125 16.0772 25.8125H18V24.8338L18.6099 25.5653C19.2044 26.2784 20.0777 26.6875 21.0061 26.6875C22.7259 26.6875 24.125 25.2884 24.125 23.5686V15.9311L24.3591 15.6971C24.7721 15.2841 25 14.7346 25 14.1501V13.125C25 12.4014 24.4111 11.8125 23.6875 11.8125V11.8125ZM21.9375 10.0625C22.179 10.0625 22.375 10.2585 22.375 10.5V11.893C22.2114 11.9512 22.0639 12.04 21.9375 12.1538C21.8111 12.0396 21.6636 11.9512 21.5 11.893V10.5C21.5 10.2585 21.696 10.0625 21.9375 10.0625ZM12.6927 24.0625C12.5339 23.5559 12.0596 23.1875 11.5009 23.1875C11.0249 23.1875 10.5975 23.4517 10.384 23.8779L10.2921 24.0625H9.25V19.6875H10.2978C11.1663 19.6875 12.0089 19.9242 12.75 20.3691V24.0625H12.6927ZM11.5049 14.5228L10.3118 15.477L9.79163 14.1763C10.0226 14.1124 10.2576 14.0586 10.4982 14.0192L11.5049 14.5228ZM12.2053 17.0625H12.4201L13.1398 19.5816C12.6743 19.3099 12.1756 19.1096 11.6571 18.9809L12.2053 17.0625ZM12.4796 16.1875H12.1454L11.7683 15.4333L12.3125 14.9979L12.8567 15.4333L12.4796 16.1875ZM13.1201 14.5228L14.1211 14.0223C14.36 14.0704 14.5941 14.1299 14.8242 14.1991L14.3127 15.477L13.1201 14.5228ZM15.375 7.4375C15.375 7.92006 14.9826 8.3125 14.5 8.3125C14.0174 8.3125 13.625 7.92006 13.625 7.4375C13.625 6.95494 14.0174 6.5625 14.5 6.5625C14.9826 6.5625 15.375 6.95494 15.375 7.4375ZM16.25 9.1875V7.4375C16.7326 7.4375 17.125 7.82994 17.125 8.3125C17.125 8.79506 16.7326 9.1875 16.25 9.1875ZM11.7372 1.3125H12.8883C15.2241 1.3125 17.125 3.21344 17.125 5.54969C17.125 5.89531 17.0821 6.24137 16.9986 6.57781L16.9636 6.71825C16.7448 6.61981 16.5046 6.5625 16.25 6.5625H16.2286C16.1214 5.56631 15.3479 4.75081 14.3342 4.62437L14.1032 4.5955C13.3314 4.49881 12.75 3.83994 12.75 3.0625H11.875C11.875 4.2805 12.7863 5.313 13.9943 5.4635L14.2253 5.49237C14.4401 5.5195 14.6348 5.60131 14.8036 5.71769C14.7043 5.70063 14.6041 5.6875 14.5 5.6875C13.6867 5.6875 13.0077 6.24706 12.8121 7H11.8129C11.6173 6.24706 10.9383 5.6875 10.125 5.6875C9.81306 5.6875 9.52475 5.77631 9.27056 5.91937C9.36769 5.30819 9.88437 4.83875 10.5174 4.81688C10.7764 5.30688 11.1553 5.73344 11.6322 6.0515L12.1174 5.3235C11.4178 4.85713 11 4.07619 11 3.23531V3.0625H10.125V3.23531C10.125 3.48687 10.1569 3.73319 10.2103 3.97337C9.17212 4.14269 8.375 5.03956 8.375 6.125V6.5625C8.12037 6.5625 7.88019 6.61981 7.66144 6.71825L7.62644 6.57781C7.54287 6.24137 7.5 5.89531 7.5 5.54969C7.5 3.21344 9.40094 1.3125 11.7372 1.3125V1.3125ZM10.125 6.5625C10.6076 6.5625 11 6.95494 11 7.4375C11 7.92006 10.6076 8.3125 10.125 8.3125C9.64244 8.3125 9.25 7.92006 9.25 7.4375C9.25 6.95494 9.64244 6.5625 10.125 6.5625ZM7.5 8.3125C7.5 7.82994 7.89244 7.4375 8.375 7.4375V9.1875C7.89244 9.1875 7.5 8.79506 7.5 8.3125ZM9.25 9.625V8.94425C9.50856 9.09475 9.80475 9.1875 10.125 9.1875C10.9383 9.1875 11.6173 8.62794 11.8129 7.875H12.8121C13.0077 8.62794 13.6867 9.1875 14.5 9.1875C14.8202 9.1875 15.1164 9.09475 15.375 8.94425V9.625C15.375 10.8312 14.3937 11.8125 13.1875 11.8125H11.4375C10.2313 11.8125 9.25 10.8312 9.25 9.625V9.625ZM11.4375 12.6875H13.1875C13.2558 12.6875 13.3231 12.6818 13.3901 12.6774L13.5528 13.328L12.3125 13.9484L11.0722 13.328L11.2349 12.6774C11.3019 12.6818 11.3692 12.6875 11.4375 12.6875V12.6875ZM4.875 22.75V20.6251C4.875 17.9025 6.54756 15.4949 8.96431 14.4638L9.93819 16.898L11.07 15.9928L11.4082 16.6687L10.7887 18.8366C10.6255 18.8221 10.4623 18.8125 10.2978 18.8125H8.375V23.982C7.86706 23.8009 7.5 23.3196 7.5 22.75V17.9375H6.625V22.75C6.625 23.9562 7.60631 24.9375 8.8125 24.9375H10.125V26.6875H8.8125C6.64119 26.6875 4.875 24.9213 4.875 22.75V22.75ZM12.75 26.6875H11V24.6033L11.1671 24.269C11.2306 24.1417 11.3587 24.0625 11.5014 24.0625C11.707 24.0625 11.875 24.2305 11.875 24.4361V24.9375H12.75C13.2326 24.9375 13.625 25.3299 13.625 25.8125C13.625 26.2951 13.2326 26.6875 12.75 26.6875V26.6875ZM17.125 24.9375H16.0772C15.4979 24.9375 14.9305 25.0263 14.3832 25.1991C14.2406 24.8202 13.9706 24.5074 13.625 24.3057V20.3691C14.3666 19.9242 15.2087 19.6875 16.0772 19.6875H17.125V24.9375ZM21.0061 25.8125C20.3384 25.8125 19.7097 25.5181 19.2823 25.0049L18 23.4662V18.8125H16.0772C15.3413 18.8125 14.6212 18.9569 13.9492 19.2308L13.2173 16.6683L13.5554 15.9924L14.6873 16.8976L15.6462 14.5005C17.6548 15.3729 19.1979 17.0857 19.8353 19.2535L19.9626 19.6862L19.3182 23.5532L20.1814 23.6968L21.4331 16.1875H23.25V23.5686C23.25 24.8058 22.2433 25.8125 21.0061 25.8125V25.8125ZM23.7404 15.0784L23.5064 15.3125H21.2436L21.0096 15.0784C20.7619 14.8304 20.625 14.5009 20.625 14.1501V13.125C20.625 12.8835 20.821 12.6875 21.0625 12.6875C21.304 12.6875 21.5 12.8835 21.5 13.125C21.5 13.8486 22.0889 14.4375 22.8125 14.4375H24.0939C24.0401 14.6786 23.9189 14.8999 23.7404 15.0784V15.0784ZM24.125 13.5625H22.8125C22.571 13.5625 22.375 13.3665 22.375 13.125C22.375 12.8835 22.571 12.6875 22.8125 12.6875H23.6875C23.929 12.6875 24.125 12.8835 24.125 13.125V13.5625Z" fill="#FAA352"/>
</svg>
