<svg width="22" height="28" viewBox="0 0 22 28" fill="none" xmlns="http://www.w3.org/2000/svg">
<path d="M11.5345 6.68854H16.8373C17.048 6.68854 17.2188 6.51775 17.2188 6.30704C17.2188 6.09633 17.048 5.92554 16.8373 5.92554H11.5345C11.3237 5.92554 11.153 6.09633 11.153 6.30704C11.153 6.51775 11.3238 6.68854 11.5345 6.68854Z" fill="#898989"/>
<path d="M11.153 8.09177C11.153 8.30248 11.3237 8.47327 11.5345 8.47327H16.8373C17.048 8.47327 17.2188 8.30248 17.2188 8.09177C17.2188 7.88106 17.048 7.71027 16.8373 7.71027H11.5345C11.3238 7.71027 11.153 7.88106 11.153 8.09177Z" fill="#898989"/>
<path d="M11.5345 10.258H16.8373C17.048 10.258 17.2188 10.0872 17.2188 9.87649C17.2188 9.66578 17.048 9.495 16.8373 9.495H11.5345C11.3237 9.495 11.153 9.66578 11.153 9.87649C11.153 10.0872 11.3238 10.258 11.5345 10.258Z" fill="#898989"/>
<path d="M17.2188 19.8368C17.2188 19.6261 17.048 19.4553 16.8373 19.4553H11.9077C11.697 19.4553 11.5262 19.6261 11.5262 19.8368C11.5262 20.0475 11.697 20.2183 11.9077 20.2183H16.8373C17.0479 20.2183 17.2188 20.0475 17.2188 19.8368Z" fill="#898989"/>
<path d="M8.94901 16.114C8.94901 15.9033 8.77822 15.7325 8.56751 15.7325H3.26468C3.05397 15.7325 2.88318 15.9033 2.88318 16.114C2.88318 16.3247 3.05397 16.4955 3.26468 16.4955H8.56751C8.77816 16.4955 8.94901 16.3247 8.94901 16.114Z" fill="#898989"/>
<path d="M3.26468 14.7108H8.56751C8.77822 14.7108 8.94901 14.54 8.94901 14.3293C8.94901 14.1186 8.77822 13.9478 8.56751 13.9478H3.26468C3.05397 13.9478 2.88318 14.1186 2.88318 14.3293C2.88312 14.54 3.05397 14.7108 3.26468 14.7108Z" fill="#898989"/>
<path d="M6.42717 3.97546C4.24694 3.97546 2.47321 5.7492 2.47321 7.92942C2.47321 10.1097 4.24694 11.8834 6.42717 11.8834C8.60739 11.8834 10.3811 10.1097 10.3811 7.92942C10.3811 5.7492 8.60745 3.97546 6.42717 3.97546ZM6.42717 11.0631C4.69926 11.0631 3.29352 9.65739 3.29352 7.92948C3.29352 6.34059 4.48221 5.0241 6.01701 4.82252V7.92948C6.01701 8.15599 6.20065 8.33964 6.42717 8.33964H9.53413C9.33261 9.87444 8.01611 11.0631 6.42717 11.0631ZM6.83732 7.51932V4.82252C8.23787 5.00643 9.35021 6.11878 9.53413 7.51932H6.83732Z" fill="#898989"/>
<path d="M9.92908 13.3904V17.0529C9.92908 17.4193 10.2272 17.7174 10.5936 17.7174H16.9644C17.3308 17.7174 17.6289 17.4193 17.6289 17.0529V13.3904C17.6289 13.024 17.3308 12.7259 16.9644 12.7259H10.5935C10.2271 12.7259 9.92908 13.0239 9.92908 13.3904ZM10.7494 13.5462H16.8086V16.8971H10.7494V13.5462Z" fill="#898989"/>
<path d="M2.47302 24.6075C2.47302 24.9739 2.77112 25.272 3.13748 25.272H4.25195C4.61836 25.272 4.91646 24.9739 4.91646 24.6075V19.0439C4.91646 18.6775 4.61836 18.3795 4.25195 18.3795H3.13748C2.77107 18.3795 2.47302 18.6776 2.47302 19.0439V24.6075ZM3.29333 19.1998H4.09615V24.4517H3.29333V19.1998Z" fill="#898989"/>
<path d="M6.16555 19.8392C5.79914 19.8392 5.50104 20.1373 5.50104 20.5037V24.6075C5.50104 24.974 5.79914 25.2721 6.16555 25.2721H7.27997C7.64637 25.2721 7.94448 24.974 7.94448 24.6075V20.5037C7.94448 20.1373 7.64637 19.8392 7.27997 19.8392H6.16555ZM7.12416 24.4517H6.32135V20.6595H7.12416V24.4517Z" fill="#898989"/>
<path d="M9.19362 25.2721H10.3081C10.6745 25.2721 10.9726 24.974 10.9726 24.6076V22.3225C10.9726 21.9561 10.6745 21.658 10.3081 21.658H9.19362C8.82722 21.658 8.52911 21.9561 8.52911 22.3225V24.6076C8.52911 24.974 8.82722 25.2721 9.19362 25.2721ZM9.34943 22.4783H10.1523V24.4517H9.34943V22.4783Z" fill="#898989"/>
<path d="M16.8371 21.3297H11.9076C11.6969 21.3297 11.5261 21.5005 11.5261 21.7112C11.5261 21.9219 11.6969 22.0927 11.9076 22.0927H16.8371C17.0479 22.0927 17.2186 21.9219 17.2186 21.7112C17.2187 21.5005 17.0479 21.3297 16.8371 21.3297Z" fill="#898989"/>
<path d="M16.8371 23.2043H11.9076C11.6969 23.2043 11.5261 23.3751 11.5261 23.5858C11.5261 23.7965 11.6969 23.9673 11.9076 23.9673H16.8371C17.0479 23.9673 17.2186 23.7965 17.2186 23.5858C17.2186 23.3751 17.0479 23.2043 16.8371 23.2043Z" fill="#898989"/>
<path d="M21.1328 5.08534C21.3593 5.08534 21.543 4.9017 21.543 4.67518V1.37473C21.543 0.616711 20.9262 0 20.1682 0H3.72998C2.97195 0 2.35524 0.616711 2.35524 1.37473V1.89815H1.83183C1.0738 1.89815 0.457092 2.51486 0.457092 3.27288V20.8449C0.457092 21.0714 0.640733 21.2551 0.867248 21.2551C1.09376 21.2551 1.2774 21.0714 1.2774 20.8449V3.27288C1.2774 2.96718 1.52612 2.71846 1.83183 2.71846H18.2701C18.5758 2.71846 18.8245 2.96718 18.8245 3.27288V26.6253C18.8245 26.931 18.5758 27.1797 18.2701 27.1797H1.83183C1.52612 27.1797 1.2774 26.931 1.2774 26.6253V22.759C1.2774 22.5325 1.09376 22.3488 0.867248 22.3488C0.640733 22.3488 0.457092 22.5325 0.457092 22.759V26.6253C0.457092 27.3833 1.0738 28 1.83183 28H18.2701C19.0281 28 19.6448 27.3833 19.6448 26.6253V26.1019H20.1682C20.9262 26.1019 21.543 25.4851 21.543 24.7271V6.58924C21.543 6.36273 21.3593 6.17909 21.1328 6.17909C20.9063 6.17909 20.7226 6.36273 20.7226 6.58924V24.7271C20.7226 25.0328 20.4739 25.2815 20.1682 25.2815H19.6448V3.27288C19.6448 2.51486 19.0281 1.89815 18.2701 1.89815C17.4398 1.89815 4.06182 1.89815 3.17555 1.89815V1.37473C3.17555 1.06903 3.42427 0.820312 3.72998 0.820312H20.1682C20.4739 0.820312 20.7226 1.06903 20.7226 1.37473V4.67518C20.7226 4.9017 20.9063 5.08534 21.1328 5.08534Z" fill="#898989"/>
</svg>
