<svg width="28" height="28" viewBox="0 0 28 28" fill="none" xmlns="http://www.w3.org/2000/svg">
<g clip-path="url(#clip0)">
<path d="M19.8631 20.1579H8.1369C7.91033 20.1579 7.72675 20.3415 7.72675 20.568C7.72675 20.7945 7.91033 20.9782 8.1369 20.9782H19.8631C20.0897 20.9782 20.2733 20.7945 20.2733 20.568C20.2733 20.3415 20.0896 20.1579 19.8631 20.1579Z" fill="#FAA352"/>
<path d="M20.2733 22.3446C20.2733 22.1181 20.0897 21.9345 19.8631 21.9345H8.1369C7.91033 21.9345 7.72675 22.1181 7.72675 22.3446C7.72675 22.5711 7.91033 22.7548 8.1369 22.7548H19.8631C20.0896 22.7548 20.2733 22.5711 20.2733 22.3446Z" fill="#FAA352"/>
<path d="M9.85223 23.7112C9.62566 23.7112 9.44208 23.8948 9.44208 24.1213C9.44208 24.3478 9.62566 24.5315 9.85223 24.5315H18.1477C18.3743 24.5315 18.5579 24.3478 18.5579 24.1213C18.5579 23.8948 18.3743 23.7112 18.1477 23.7112H9.85223Z" fill="#FAA352"/>
<path d="M20.306 9.81419L22.7703 8.91486C22.9934 8.83343 23.1376 8.62731 23.1376 8.38981C23.1376 8.1523 22.9934 7.94629 22.7703 7.86486L14.6432 4.89884C14.2285 4.74747 13.7717 4.74742 13.3569 4.89884L5.22988 7.86481C5.00676 7.94618 4.86255 8.15225 4.86255 8.38981C4.86255 8.62737 5.0067 8.83343 5.22983 8.91486L7.69415 9.81419V14.6622C7.69415 14.9819 7.83519 15.2854 8.05131 15.4894C8.26541 15.6913 8.50275 15.8814 8.75962 16.059C8.75956 16.0591 8.75946 16.0592 8.75935 16.0593C8.48345 16.3301 8.32524 16.7056 8.32524 17.0897V17.3657C8.32524 17.4874 8.36341 17.6032 8.42996 17.6993L8.03135 18.6181C7.94122 18.8259 8.0366 19.0675 8.24441 19.1576C8.452 19.2477 8.69367 19.1525 8.7839 18.9446L9.15949 18.0787C9.21314 18.0959 9.26734 18.1107 9.32202 18.1229V19.0462C9.32202 19.2727 9.50561 19.4564 9.73218 19.4564C9.95875 19.4564 10.1423 19.2727 10.1423 19.0462V18.1229C10.197 18.1106 10.2512 18.0959 10.3048 18.0787L10.6805 18.9446C10.7707 19.1526 11.0125 19.2477 11.2199 19.1576C11.4278 19.0675 11.5232 18.8259 11.433 18.6181L11.0344 17.6993C11.1009 17.6032 11.1392 17.4874 11.1392 17.3656V17.1539C12.0384 17.4095 13.0137 17.5435 14 17.5435C16.0941 17.5435 18.4407 16.9116 19.9488 15.4892C20.1655 15.2847 20.3059 14.9788 20.3059 14.6621C20.306 14.1137 20.306 10.3699 20.306 9.81419V9.81419ZM13.6381 5.66944C13.8715 5.58424 14.1286 5.58424 14.3619 5.66944L21.8161 8.38986C21.6775 8.44045 14.49 11.0635 14.362 11.1102C14.1285 11.1954 13.8715 11.1954 13.6381 11.1102L10.7732 10.0647L13.1434 8.89397L13.357 8.9719C13.5643 9.04759 13.7822 9.08543 14.0001 9.08543C14.218 9.08543 14.4359 9.04759 14.6433 8.9719L15.0215 8.83387C15.2522 8.74976 15.4071 8.52833 15.4071 8.28284V7.98069C15.4071 7.21928 14.788 6.58819 14.0269 6.57392C13.6554 6.56713 13.2988 6.70981 13.0273 6.97641C12.7514 7.24723 12.5931 7.62276 12.5931 8.00683V8.25096C9.6012 9.72871 9.79217 9.63055 9.71862 9.67983L6.18407 8.38986L13.6381 5.66944ZM13.4133 8.11927V8.00678C13.4133 7.84157 13.482 7.67936 13.6017 7.56179C13.7148 7.45083 13.8587 7.39193 14.0113 7.39401C14.3286 7.39997 14.5867 7.66312 14.5867 7.98064V8.11921L14.3619 8.20124C14.1285 8.28645 13.8715 8.28639 13.6382 8.20124L13.4133 8.11927ZM9.32208 13.5012C9.06346 13.3299 8.82601 13.1439 8.61415 12.9441C8.55077 12.8843 8.51446 12.8003 8.51446 12.7137V10.1137L9.32268 10.4086C9.32175 10.4614 9.32208 10.0537 9.32208 13.5012ZM9.14549 17.2022C9.14549 17.0855 9.124 16.8507 9.33389 16.6447C9.45387 16.5269 9.60333 16.4744 9.7435 16.477C10.1646 16.4849 10.3189 16.7826 10.3189 17.2022C9.82608 17.382 9.73786 17.4184 9.14549 17.2022V17.2022ZM9.32208 15.4495C9.0872 15.294 8.87167 15.127 8.67737 14.9503C8.61617 14.8946 8.5144 14.8197 8.5144 14.6622V13.9329C8.76328 14.1226 9.03431 14.2976 9.32208 14.4583V15.4495ZM10.8409 16.1985C10.6658 15.9735 10.4244 15.8032 10.1424 15.7174V14.8555C11.0069 15.2159 11.9819 15.4566 13.0058 15.5497C13.2318 15.57 13.431 15.4039 13.4514 15.1784C13.472 14.9528 13.3057 14.7533 13.0801 14.7328C12.0088 14.6354 11.0006 14.3665 10.1423 13.9612V10.7077L13.3569 11.8809C13.5592 11.9547 13.7794 11.9944 14 11.9944C14.2258 11.9944 14.4463 11.9527 14.6431 11.8809H14.6431L19.4856 10.1137V12.7137C19.4856 12.8003 19.4493 12.8843 19.3859 12.9441C18.3549 13.9165 16.7272 14.5685 14.9199 14.7328C14.6943 14.7533 14.528 14.9528 14.5486 15.1784C14.569 15.404 14.7684 15.5704 14.9942 15.5497C16.7335 15.3916 18.3342 14.8107 19.4856 13.933V14.6622C19.4856 14.7523 19.4455 14.8365 19.3859 14.8926C18.0234 16.1778 15.8787 16.7234 14 16.7234C12.8927 16.7233 11.8035 16.5421 10.8409 16.1985V16.1985Z" fill="#FAA352"/>
<path d="M4.89238 28H23.1077C24.01 28 24.7441 27.2659 24.7441 26.3636V15.1757C24.7441 14.9492 24.5605 14.7656 24.3339 14.7656C24.1074 14.7656 23.9238 14.9492 23.9238 15.1757V26.3636C23.9238 26.8136 23.5577 27.1797 23.1077 27.1797H4.89238C4.44236 27.1797 4.07623 26.8136 4.07623 26.3636V3.35315H23.9238V13.2617C23.9238 13.4882 24.1074 13.6718 24.3339 13.6718C24.5605 13.6718 24.7441 13.4882 24.7441 13.2617C24.7441 12.8693 24.7441 2.19487 24.7441 1.63641C24.7441 0.734177 24.0101 0 23.1077 0C22.6155 0 5.05535 0 4.89238 0C3.99004 0 3.25592 0.734067 3.25592 1.63641V26.3635C3.25592 27.2659 3.99004 28 4.89238 28V28ZM23.9238 1.63641V2.53284H7.35276V0.820309H23.1077C23.5575 0.820309 23.9238 1.18628 23.9238 1.63641V1.63641ZM4.07623 1.63641C4.07623 1.27077 4.31789 0.960527 4.64995 0.857059C4.72657 0.833161 4.808 0.820309 4.89238 0.820309H6.53245V2.53284H4.07623V1.63641Z" fill="#FAA352"/>
</g>
<defs>
<clipPath id="clip0">
<rect width="28" height="28" fill="white"/>
</clipPath>
</defs>
</svg>
