<svg width="28" height="28" viewBox="0 0 28 28" fill="none" xmlns="http://www.w3.org/2000/svg">
<path d="M26.1957 11.4011L26.1982 11.3992C26.7208 10.9979 26.8409 10.2873 26.5305 9.73363L26.5262 9.72596L26.5217 9.7184L24.058 5.57255C23.7182 4.97758 23.0097 4.80798 22.4666 5.00007L22.4559 5.00385L22.4453 5.00798L19.7279 6.06954C19.2409 5.73295 18.7258 5.43906 18.1785 5.19311L17.7678 2.40715C17.6784 1.74197 17.0947 1.3 16.4701 1.3H11.5354C10.9107 1.3 10.3271 1.74198 10.2376 2.40715L9.82679 5.1939C9.27737 5.44284 8.76351 5.74171 8.2812 6.07097L5.5601 5.00798L5.56011 5.00796L5.5544 5.00579C4.96623 4.78191 4.27583 4.99746 3.94742 5.57258L1.48518 9.71603C1.13209 10.3012 1.30622 11.0144 1.80723 11.3992L1.80978 11.4011L4.09593 13.1401C4.06851 13.4185 4.05025 13.7072 4.05025 14C4.05025 14.2928 4.06851 14.5815 4.09593 14.8599L1.80978 16.5989L1.80978 16.5989L1.80723 16.6008C1.28462 17.0021 1.16452 17.7127 1.47497 18.2664L1.47927 18.274L1.48377 18.2816L3.94744 22.4274C4.28724 23.0224 4.99575 23.192 5.53882 22.9999L5.54953 22.9961L5.5601 22.992L8.27752 21.9305C8.76457 22.2671 9.27969 22.5609 9.82691 22.8069L10.2376 25.5929C10.3271 26.258 10.9107 26.7 11.5354 26.7H16.4701C17.0947 26.7 17.6784 26.258 17.7678 25.5929L18.1787 22.8061C18.7281 22.5572 19.2419 22.2583 19.7243 21.929L22.4453 22.992L22.4453 22.992L22.451 22.9942C23.0392 23.2181 23.7296 23.0025 24.058 22.4274L26.5217 18.2816L26.5262 18.274L26.5305 18.2664C26.8409 17.7127 26.7208 17.0021 26.1982 16.6008L26.1957 16.5989L23.9098 14.8601C23.937 14.5853 23.9552 14.3001 23.9552 14C23.9552 13.6999 23.937 13.4147 23.9098 13.1399L26.1957 11.4011Z" stroke="#FAA352" stroke-width="1.4"/>
<path d="M13.7198 18.6286C11.3388 18.6286 9.40198 16.7446 9.40198 14.4286C9.40198 12.1126 11.3388 10.2286 13.7198 10.2286C16.1008 10.2286 18.0376 12.1126 18.0376 14.4286C18.0376 16.7446 16.1008 18.6286 13.7198 18.6286Z" stroke="#FAA352" stroke-width="1.4"/>
</svg>
