<svg width="28" height="28" viewBox="0 0 28 28" fill="none" xmlns="http://www.w3.org/2000/svg">
<path d="M2.0416 0.5H10.7916C11.6415 0.5 12.3334 1.19198 12.3334 2.0416V7.2916C12.3334 8.14146 11.6415 8.8334 10.7916 8.8334H2.0416C1.19198 8.8334 0.5 8.14149 0.5 7.2916V2.0416C0.5 1.19194 1.19194 0.5 2.0416 0.5Z" stroke="#FAA352"/>
<path d="M2.0416 12.1666H10.7916C11.6415 12.1666 12.3334 12.8585 12.3334 13.7084V25.9584C12.3334 26.808 11.6415 27.5 10.7916 27.5H2.0416C1.19194 27.5 0.5 26.808 0.5 25.9584V13.7084C0.5 12.8585 1.19198 12.1666 2.0416 12.1666Z" stroke="#FAA352"/>
<path d="M17.2084 19.1666H25.9584C26.808 19.1666 27.5 19.8585 27.5 20.7084V25.9584C27.5 26.808 26.808 27.5 25.9584 27.5H17.2084C16.3585 27.5 15.6666 26.808 15.6666 25.9584V20.7084C15.6666 19.8585 16.3585 19.1666 17.2084 19.1666Z" stroke="#FAA352"/>
<path d="M25.4584 0.5H25.9584C26.808 0.5 27.5 1.19194 27.5 2.0416V14.2916C27.5 15.1415 26.808 15.8334 25.9584 15.8334H17.2084C16.3585 15.8334 15.6666 15.1415 15.6666 14.2916V2.0416C15.6666 1.19198 16.3585 0.5 17.2084 0.5H25.4584Z" stroke="#FAA352"/>
</svg>
