<svg width="28" height="28" viewBox="0 0 28 28" fill="none" xmlns="http://www.w3.org/2000/svg">
<path d="M7.03788 11.2471H13.0817L13.6992 11.8482C13.7829 11.9305 13.8956 11.9766 14.013 11.9766C14.1304 11.9766 14.2431 11.9305 14.3268 11.8482L14.9448 11.247H20.9112C21.2064 11.2466 21.4893 11.1292 21.6981 10.9205C21.9068 10.7117 22.0243 10.4288 22.0247 10.1336V1.66042C22.0243 1.36514 21.9068 1.08207 21.698 0.873306C21.4892 0.664546 21.2061 0.54715 20.9108 0.546875H14.9683C14.768 0.546795 14.57 0.590382 14.3883 0.6746C14.2066 0.758819 14.0454 0.881645 13.9159 1.03452C13.7865 0.881645 13.6253 0.758819 13.4435 0.6746C13.2618 0.590382 13.0639 0.546795 12.8636 0.546875H7.03788C6.7426 0.547164 6.4595 0.664565 6.25067 0.873322C6.04184 1.08208 5.92434 1.36514 5.92395 1.66042V10.1336C5.92436 10.4289 6.04186 10.7119 6.25069 10.9207C6.45951 11.1294 6.74261 11.2468 7.03788 11.2471V11.2471ZM14.2447 1.925C14.2451 1.73338 14.3215 1.54977 14.4572 1.41443C14.5929 1.2791 14.7767 1.20311 14.9683 1.20313H20.9108C21.0321 1.20321 21.1484 1.25141 21.2342 1.33714C21.32 1.42287 21.3683 1.53913 21.3685 1.66042V10.1336C21.3683 10.2549 21.32 10.3711 21.2342 10.4569C21.1484 10.5426 21.0321 10.5908 20.9108 10.5909H14.8608C14.7435 10.5906 14.6309 10.6364 14.5471 10.7183L14.3338 10.9261L14.2434 1.925H14.2447ZM6.5802 1.66042C6.58039 1.53913 6.62868 1.42287 6.71448 1.33714C6.80028 1.25141 6.91659 1.20321 7.03788 1.20313H12.8636C12.9587 1.20321 13.0529 1.22204 13.1407 1.25853C13.2286 1.29502 13.3084 1.34846 13.3756 1.4158C13.4428 1.48314 13.4961 1.56306 13.5324 1.65099C13.5687 1.73893 13.5873 1.83315 13.5872 1.92828L13.6773 10.9108L13.4795 10.7184C13.3957 10.6364 13.283 10.5906 13.1657 10.5908H7.03788C6.91659 10.5907 6.80028 10.5426 6.71448 10.4568C6.62868 10.3711 6.58039 10.2548 6.5802 10.1335V1.66042Z" fill="#FAA352"/>
<path d="M9.83582 2.91637H12.289C12.376 2.91637 12.4595 2.8818 12.521 2.82026C12.5825 2.75873 12.6171 2.67527 12.6171 2.58824C12.6171 2.50122 12.5825 2.41776 12.521 2.35622C12.4595 2.29469 12.376 2.26012 12.289 2.26012H9.83582C9.74879 2.26012 9.66533 2.29469 9.6038 2.35622C9.54226 2.41776 9.50769 2.50122 9.50769 2.58824C9.50769 2.67527 9.54226 2.75873 9.6038 2.82026C9.66533 2.8818 9.74879 2.91637 9.83582 2.91637V2.91637Z" fill="#FAA352"/>
<path d="M7.71094 2.91637H8.65807C8.74509 2.91637 8.82855 2.8818 8.89009 2.82026C8.95163 2.75873 8.9862 2.67527 8.9862 2.58824C8.9862 2.50122 8.95163 2.41776 8.89009 2.35622C8.82855 2.29469 8.74509 2.26012 8.65807 2.26012H7.71094C7.62391 2.26012 7.54045 2.29469 7.47892 2.35622C7.41738 2.41776 7.38281 2.50122 7.38281 2.58824C7.38281 2.67527 7.41738 2.75873 7.47892 2.82026C7.54045 2.8818 7.62391 2.91637 7.71094 2.91637V2.91637Z" fill="#FAA352"/>
<path d="M12.2889 4.3938H11.7226C11.6356 4.3938 11.5521 4.42837 11.4906 4.4899C11.429 4.55144 11.3945 4.6349 11.3945 4.72192C11.3945 4.80895 11.429 4.89241 11.4906 4.95394C11.5521 5.01548 11.6356 5.05005 11.7226 5.05005H12.2889C12.376 5.05005 12.4594 5.01548 12.521 4.95394C12.5825 4.89241 12.6171 4.80895 12.6171 4.72192C12.6171 4.6349 12.5825 4.55144 12.521 4.4899C12.4594 4.42837 12.376 4.3938 12.2889 4.3938Z" fill="#FAA352"/>
<path d="M7.71094 5.05005H10.5469C10.6339 5.05005 10.7174 5.01548 10.7789 4.95394C10.8405 4.89241 10.875 4.80895 10.875 4.72192C10.875 4.6349 10.8405 4.55144 10.7789 4.4899C10.7174 4.42837 10.6339 4.3938 10.5469 4.3938H7.71094C7.62391 4.3938 7.54045 4.42837 7.47892 4.4899C7.41738 4.55144 7.38281 4.6349 7.38281 4.72192C7.38281 4.80895 7.41738 4.89241 7.47892 4.95394C7.54045 5.01548 7.62391 5.05005 7.71094 5.05005V5.05005Z" fill="#FAA352"/>
<path d="M12.2889 6.52756H8.89087C8.80384 6.52756 8.72038 6.56213 8.65885 6.62366C8.59731 6.6852 8.56274 6.76866 8.56274 6.85568C8.56274 6.94271 8.59731 7.02616 8.65885 7.0877C8.72038 7.14924 8.80384 7.1838 8.89087 7.1838H12.2889C12.376 7.1838 12.4594 7.14924 12.5209 7.0877C12.5825 7.02616 12.6171 6.94271 12.6171 6.85568C12.6171 6.76866 12.5825 6.6852 12.5209 6.62366C12.4594 6.56213 12.376 6.52756 12.2889 6.52756V6.52756Z" fill="#FAA352"/>
<path d="M7.70376 7.1838H7.71092C7.79795 7.1838 7.88141 7.14924 7.94294 7.0877C8.00448 7.02616 8.03905 6.94271 8.03905 6.85568C8.03905 6.76866 8.00448 6.6852 7.94294 6.62366C7.88141 6.56213 7.79795 6.52756 7.71092 6.52756H7.70398C7.61696 6.52756 7.5335 6.56213 7.47196 6.62366C7.41042 6.6852 7.37585 6.76866 7.37585 6.85568C7.37585 6.94271 7.41042 7.02616 7.47196 7.0877C7.5335 7.14924 7.61696 7.1838 7.70398 7.1838H7.70376Z" fill="#FAA352"/>
<path d="M12.2889 8.6613H11.9647C11.8776 8.6613 11.7942 8.69587 11.7326 8.75741C11.6711 8.81894 11.6365 8.9024 11.6365 8.98943C11.6365 9.07645 11.6711 9.15991 11.7326 9.22144C11.7942 9.28298 11.8776 9.31755 11.9647 9.31755H12.2889C12.3759 9.31755 12.4594 9.28298 12.5209 9.22144C12.5825 9.15991 12.617 9.07645 12.617 8.98943C12.617 8.9024 12.5825 8.81894 12.5209 8.75741C12.4594 8.69587 12.3759 8.6613 12.2889 8.6613Z" fill="#FAA352"/>
<path d="M10.7718 8.6613H7.71094C7.62391 8.6613 7.54045 8.69587 7.47892 8.75741C7.41738 8.81894 7.38281 8.9024 7.38281 8.98943C7.38281 9.07645 7.41738 9.15991 7.47892 9.22144C7.54045 9.28298 7.62391 9.31755 7.71094 9.31755H10.7718C10.8588 9.31755 10.9423 9.28298 11.0038 9.22144C11.0654 9.15991 11.0999 9.07645 11.0999 8.98943C11.0999 8.9024 11.0654 8.81894 11.0038 8.75741C10.9423 8.69587 10.8588 8.6613 10.7718 8.6613Z" fill="#FAA352"/>
<path d="M19.6442 2.91637H20.1473C20.2344 2.91637 20.3178 2.8818 20.3794 2.82026C20.4409 2.75873 20.4755 2.67527 20.4755 2.58824C20.4755 2.50122 20.4409 2.41776 20.3794 2.35622C20.3178 2.29469 20.2344 2.26012 20.1473 2.26012H19.6442C19.5572 2.26012 19.4737 2.29469 19.4122 2.35622C19.3507 2.41776 19.3161 2.50122 19.3161 2.58824C19.3161 2.67527 19.3507 2.75873 19.4122 2.82026C19.4737 2.8818 19.5572 2.91637 19.6442 2.91637Z" fill="#FAA352"/>
<path d="M15.569 2.91637H18.4297C18.5167 2.91637 18.6002 2.8818 18.6617 2.82026C18.7232 2.75873 18.7578 2.67527 18.7578 2.58824C18.7578 2.50122 18.7232 2.41776 18.6617 2.35622C18.6002 2.29469 18.5167 2.26012 18.4297 2.26012H15.569C15.4819 2.26012 15.3985 2.29469 15.337 2.35622C15.2754 2.41776 15.2408 2.50122 15.2408 2.58824C15.2408 2.67527 15.2754 2.75873 15.337 2.82026C15.3985 2.8818 15.4819 2.91637 15.569 2.91637Z" fill="#FAA352"/>
<path d="M20.1473 4.3938H17.4676C17.3806 4.3938 17.2971 4.42837 17.2356 4.4899C17.174 4.55144 17.1395 4.6349 17.1395 4.72192C17.1395 4.80895 17.174 4.89241 17.2356 4.95394C17.2971 5.01548 17.3806 5.05005 17.4676 5.05005H20.1473C20.2343 5.05005 20.3178 5.01548 20.3793 4.95394C20.4408 4.89241 20.4754 4.80895 20.4754 4.72192C20.4754 4.6349 20.4408 4.55144 20.3793 4.4899C20.3178 4.42837 20.2343 4.3938 20.1473 4.3938Z" fill="#FAA352"/>
<path d="M15.569 5.05005H16.2728C16.3598 5.05005 16.4433 5.01548 16.5048 4.95394C16.5664 4.89241 16.6009 4.80895 16.6009 4.72192C16.6009 4.6349 16.5664 4.55144 16.5048 4.4899C16.4433 4.42837 16.3598 4.3938 16.2728 4.3938H15.569C15.4819 4.3938 15.3985 4.42837 15.3369 4.4899C15.2754 4.55144 15.2408 4.6349 15.2408 4.72192C15.2408 4.80895 15.2754 4.89241 15.3369 4.95394C15.3985 5.01548 15.4819 5.05005 15.569 5.05005Z" fill="#FAA352"/>
<path d="M20.1472 6.52756H19.2697C19.1826 6.52756 19.0992 6.56213 19.0376 6.62366C18.9761 6.6852 18.9415 6.76866 18.9415 6.85568C18.9415 6.94271 18.9761 7.02616 19.0376 7.0877C19.0992 7.14924 19.1826 7.1838 19.2697 7.1838H20.1472C20.2342 7.1838 20.3177 7.14924 20.3792 7.0877C20.4408 7.02616 20.4753 6.94271 20.4753 6.85568C20.4753 6.76866 20.4408 6.6852 20.3792 6.62366C20.3177 6.56213 20.2342 6.52756 20.1472 6.52756V6.52756Z" fill="#FAA352"/>
<path d="M15.569 7.1838H18.0946C18.1816 7.1838 18.2651 7.14924 18.3266 7.0877C18.3882 7.02616 18.4227 6.94271 18.4227 6.85568C18.4227 6.76866 18.3882 6.6852 18.3266 6.62366C18.2651 6.56213 18.1816 6.52756 18.0946 6.52756H15.569C15.4819 6.52756 15.3985 6.56213 15.3369 6.62366C15.2754 6.6852 15.2408 6.76866 15.2408 6.85568C15.2408 6.94271 15.2754 7.02616 15.3369 7.0877C15.3985 7.14924 15.4819 7.1838 15.569 7.1838Z" fill="#FAA352"/>
<path d="M20.1473 8.6613H17.2193C17.1323 8.6613 17.0488 8.69587 16.9873 8.75741C16.9257 8.81894 16.8912 8.9024 16.8912 8.98943C16.8912 9.07645 16.9257 9.15991 16.9873 9.22144C17.0488 9.28298 17.1323 9.31755 17.2193 9.31755H20.1473C20.2343 9.31755 20.3178 9.28298 20.3793 9.22144C20.4408 9.15991 20.4754 9.07645 20.4754 8.98943C20.4754 8.9024 20.4408 8.81894 20.3793 8.75741C20.3178 8.69587 20.2343 8.6613 20.1473 8.6613Z" fill="#FAA352"/>
<path d="M15.569 9.31755H16.0473C16.1343 9.31755 16.2178 9.28298 16.2793 9.22144C16.3409 9.15991 16.3754 9.07645 16.3754 8.98943C16.3754 8.9024 16.3409 8.81894 16.2793 8.75741C16.2178 8.69587 16.1343 8.6613 16.0473 8.6613H15.569C15.4819 8.6613 15.3985 8.69587 15.337 8.75741C15.2754 8.81894 15.2408 8.9024 15.2408 8.98943C15.2408 9.07645 15.2754 9.15991 15.337 9.22144C15.3985 9.28298 15.4819 9.31755 15.569 9.31755Z" fill="#FAA352"/>
<path d="M13.9982 12.2141C13.2266 12.2149 12.4869 12.5218 11.9414 13.0674C11.3958 13.6129 11.0889 14.3526 11.088 15.1242V16.4413C11.0889 17.2129 11.3958 17.9526 11.9413 18.4981C12.4869 19.0437 13.2266 19.3506 13.9982 19.3515H14.0122C14.7838 19.3506 15.5234 19.0437 16.069 18.4981C16.6146 17.9526 16.9215 17.2129 16.9223 16.4413V15.1242C16.9215 14.3526 16.6146 13.613 16.069 13.0674C15.5234 12.5218 14.7837 12.215 14.0122 12.2141H13.9982ZM16.2661 15.1242V16.4413C16.2654 17.0389 16.0277 17.6118 15.6052 18.0343C15.1827 18.4568 14.6098 18.6945 14.0122 18.6952H13.9982C13.4006 18.6945 12.8277 18.4568 12.4052 18.0343C11.9826 17.6118 11.7449 17.0389 11.7443 16.4413V15.1242C11.7449 14.5266 11.9826 13.9537 12.4052 13.5312C12.8277 13.1087 13.4006 12.871 13.9982 12.8703H14.0122C14.6098 12.871 15.1827 13.1087 15.6052 13.5312C16.0277 13.9537 16.2654 14.5266 16.2661 15.1242V15.1242Z" fill="#FAA352"/>
<path d="M21.5719 13.8707C20.8857 13.8715 20.2279 14.1444 19.7427 14.6297C19.2575 15.1149 18.9845 15.7727 18.9838 16.4589V17.6118C18.9845 18.298 19.2575 18.9559 19.7427 19.4411C20.2279 19.9263 20.8857 20.1992 21.5719 20.2H21.5842C22.2704 20.1992 22.9282 19.9263 23.4134 19.4411C23.8986 18.9559 24.1716 18.298 24.1723 17.6118V16.4589C24.1716 15.7727 23.8986 15.1149 23.4134 14.6297C22.9282 14.1445 22.2704 13.8715 21.5842 13.8707H21.5719ZM23.5161 16.4589V17.6118C23.5155 18.124 23.3118 18.6151 22.9496 18.9773C22.5874 19.3394 22.0964 19.5432 21.5842 19.5437H21.5719C21.0597 19.5432 20.5687 19.3394 20.2065 18.9773C19.8443 18.6151 19.6406 18.124 19.64 17.6118V16.4589C19.6406 15.9467 19.8443 15.4557 20.2065 15.0935C20.5687 14.7313 21.0597 14.5276 21.5719 14.527H21.5842C22.0964 14.5276 22.5874 14.7313 22.9496 15.0935C23.3118 15.4557 23.5155 15.9467 23.5161 16.4589V16.4589Z" fill="#FAA352"/>
<path d="M23.4117 20.3995C23.2399 20.389 23.1514 20.4966 23.0662 20.6005C22.8864 20.8207 22.6586 20.9969 22.4002 21.1156C22.1419 21.2343 21.8598 21.2924 21.5755 21.2855C21.2913 21.2785 21.0124 21.2067 20.7602 21.0754C20.5079 20.9442 20.289 20.757 20.1202 20.5283C20.0889 20.4858 20.0478 20.4515 20.0004 20.4283C19.953 20.4051 19.9007 20.3937 19.848 20.395C19.3301 20.4066 18.8252 20.5593 18.3878 20.8367C18.106 20.4964 17.7573 20.2175 17.3634 20.0173C16.9695 19.8171 16.5387 19.6999 16.0977 19.6728C15.9247 19.6622 15.8398 19.7655 15.7417 19.8853C15.5317 20.1424 15.2657 20.3481 14.9641 20.4867C14.6625 20.6253 14.3331 20.6932 14.0013 20.685C13.6694 20.6769 13.3438 20.593 13.0493 20.4398C12.7548 20.2866 12.4993 20.0681 12.3021 19.801C12.271 19.7583 12.2299 19.7239 12.1825 19.7007C12.1351 19.6775 12.0827 19.6662 12.0299 19.6678C11.1851 19.6875 10.3818 20.0383 9.79318 20.6447C9.73161 20.7078 9.67364 20.7735 9.61786 20.8406C9.20863 20.5807 8.74008 20.4289 8.25614 20.3995C8.08371 20.389 7.99577 20.4966 7.91068 20.6005C7.73083 20.8207 7.50303 20.9969 7.24466 21.1156C6.9863 21.2343 6.70422 21.2924 6.41997 21.2855C6.13572 21.2785 5.85683 21.2067 5.60459 21.0754C5.35235 20.9442 5.13345 20.757 4.96461 20.5283C4.93336 20.4857 4.89227 20.4514 4.84487 20.4282C4.79746 20.405 4.74513 20.3936 4.69237 20.395C3.94148 20.4146 3.22792 20.7267 2.70383 21.2648C2.17975 21.8029 1.88661 22.5245 1.8869 23.2756V25.8289C1.8869 25.9159 1.92147 25.9994 1.98301 26.0609C2.04454 26.1225 2.128 26.157 2.21503 26.157H8.87061V27.125C8.87061 27.212 8.90518 27.2955 8.96671 27.357C9.02825 27.4186 9.11171 27.4531 9.19873 27.4531H18.8116C18.8986 27.4531 18.9821 27.4186 19.0436 27.357C19.1051 27.2955 19.1397 27.212 19.1397 27.125V26.157H25.7852C25.8722 26.157 25.9557 26.1225 26.0172 26.0609C26.0787 25.9994 26.1133 25.9159 26.1133 25.8289V23.2756C26.113 22.5426 25.8335 21.8373 25.3316 21.303C24.8298 20.7687 24.1433 20.4457 23.4117 20.3995V20.3995ZM2.54299 25.5008V23.2756C2.54605 22.7241 2.75251 22.1931 3.1228 21.7844C3.49309 21.3757 4.00118 21.1181 4.54969 21.0608C4.78581 21.3365 5.07865 21.5579 5.40823 21.7101C5.7378 21.8622 6.09633 21.9414 6.45932 21.9422C6.8223 21.9431 7.1812 21.8655 7.51147 21.7149C7.84174 21.5643 8.13562 21.3442 8.373 21.0696C8.68478 21.1111 8.98409 21.2188 9.25085 21.3854C9.00037 21.8551 8.86976 22.3795 8.87061 22.9118V25.5008H2.54299ZM18.4835 26.7969H9.52686V22.9119C9.52659 22.265 9.76863 21.6414 10.2053 21.164C10.642 20.6866 11.2416 20.3901 11.886 20.3328C12.1514 20.6481 12.4824 20.9018 12.8558 21.0761C13.2293 21.2504 13.6362 21.3411 14.0484 21.342C14.4605 21.3429 14.8678 21.2539 15.2421 21.0813C15.6163 20.9086 15.9483 20.6564 16.2151 20.3423C16.8413 20.4208 17.4173 20.7252 17.835 21.1984C18.2526 21.6715 18.4832 22.2809 18.4835 22.912V26.7969ZM25.4571 25.5008H19.1397V22.9119C19.14 22.378 19.008 21.8524 18.7554 21.382C19.043 21.2027 19.3682 21.0927 19.7056 21.0607C19.9417 21.3364 20.2345 21.5579 20.5641 21.7101C20.8937 21.8622 21.2522 21.9415 21.6152 21.9423C21.9782 21.9432 22.3372 21.8657 22.6674 21.7151C22.9977 21.5645 23.2916 21.3443 23.529 21.0697C24.0629 21.142 24.5524 21.4054 24.9069 21.811C25.2614 22.2166 25.4568 22.7369 25.4571 23.2756V25.5008Z" fill="#FAA352"/>
<path d="M6.41584 20.2H6.42814C7.11432 20.1992 7.77217 19.9263 8.25737 19.4411C8.74257 18.9559 9.0155 18.298 9.01628 17.6118V16.4589C9.01551 15.7727 8.74259 15.1149 8.25739 14.6297C7.77219 14.1444 7.11433 13.8715 6.42814 13.8707H6.41584C5.72965 13.8715 5.07181 14.1445 4.58661 14.6297C4.10141 15.1149 3.82848 15.7727 3.8277 16.4589V17.6118C3.82848 18.298 4.10141 18.9559 4.58661 19.4411C5.07181 19.9263 5.72966 20.1992 6.41584 20.2ZM4.48395 16.4589C4.48453 15.9467 4.68825 15.4557 5.05042 15.0935C5.41259 14.7313 5.90364 14.5276 6.41584 14.527H6.42814C6.94034 14.5276 7.43138 14.7313 7.79356 15.0935C8.15573 15.4557 8.35945 15.9467 8.36003 16.4589V17.6118C8.35945 18.124 8.15573 18.6151 7.79355 18.9773C7.43138 19.3394 6.94033 19.5432 6.42814 19.5437H6.41584C5.90365 19.5432 5.4126 19.3394 5.05042 18.9773C4.68825 18.6151 4.48453 18.124 4.48395 17.6118V16.4589Z" fill="#FAA352"/>
</svg>
