<svg width="28" height="28" viewBox="0 0 28 28" fill="none" xmlns="http://www.w3.org/2000/svg">
<path d="M14 0H7.93333C7.67562 0 7.46667 0.208952 7.46667 0.466667V3.73333H0.466667C0.208952 3.73333 0 3.94229 0 4.2V27.5333C0 27.791 0.208952 28 0.466667 28H14C14.2577 28 14.4667 27.791 14.4667 27.5333V0.466667C14.4667 0.208952 14.2577 0 14 0ZM13.5333 24.2667H8.4V23.3333H13.5333V24.2667ZM0.933333 7H7.46667V21H0.933333V7ZM13.5333 5.13333H8.4V3.73333H13.5333V5.13333ZM0.933333 21.9333H7.46667V23.3333H0.933333V21.9333ZM8.4 22.4V6.06667H13.5333V22.4H8.4ZM13.5333 0.933333V2.8H8.4V0.933333H13.5333ZM7.46667 4.66667V6.06667H0.933333V4.66667H7.46667ZM0.933333 24.2667H7.46667V27.0667H0.933333V24.2667ZM8.4 27.0667V25.2H13.5333V27.0667H8.4Z" fill="#FAA352"/>
<path d="M27.985 25.5491L22.385 4.08241C22.3538 3.9621 22.2758 3.85933 22.1683 3.79667C22.061 3.73423 21.9331 3.71714 21.8131 3.74927L14.813 5.61594C14.5651 5.68202 14.417 5.93586 14.4817 6.18423L20.0817 27.6509C20.113 27.7712 20.1911 27.874 20.2987 27.9364C20.406 27.9986 20.5338 28.0155 20.6537 27.9831L27.6537 26.1165C27.9011 26.0504 28.049 25.797 27.985 25.5491V25.5491ZM16.2456 9.24833L22.344 7.62252L22.5634 8.46242L16.4655 10.0907L16.2456 9.24833ZM22.799 9.36796L25.5056 19.7502L19.4095 21.3766L16.703 10.9938L22.799 9.36796ZM25.7433 20.6536L26.2211 22.485L20.1228 24.1108L19.6467 22.2801L25.7433 20.6536ZM21.6002 4.7717L22.1084 6.71994L16.01 8.3453L15.5023 6.39797L21.6002 4.7717ZM20.8665 26.9616L20.3584 25.0134L26.4567 23.3871L26.9644 25.3344L20.8665 26.9616Z" fill="#FAA352"/>
<path d="M6.0667 8.39999H2.33337C2.07565 8.39999 1.8667 8.60894 1.8667 8.86665V12.6C1.8667 12.8577 2.07565 13.0667 2.33337 13.0667H6.0667C6.32441 13.0667 6.53337 12.8577 6.53337 12.6V8.86665C6.53337 8.60894 6.32441 8.39999 6.0667 8.39999ZM5.60003 12.1333H2.80003V9.33332H5.60003V12.1333Z" fill="#FAA352"/>
</svg>
