<svg width="28" height="28" viewBox="0 0 28 28" fill="none" xmlns="http://www.w3.org/2000/svg">
<path d="M8.75 3.0625C8.99162 3.0625 9.1875 2.86662 9.1875 2.625C9.1875 2.38338 8.99162 2.1875 8.75 2.1875C8.50838 2.1875 8.3125 2.38338 8.3125 2.625C8.3125 2.86662 8.50838 3.0625 8.75 3.0625Z" fill="#FAA352"/>
<path d="M10.0625 2.1875H16.1875V3.0625H10.0625V2.1875Z" fill="#FAA352"/>
<path d="M13.5625 5.6875H17.9375V6.5625H13.5625V5.6875Z" fill="#FAA352"/>
<path d="M17.0625 7.4375H17.9375V8.3125H17.0625V7.4375Z" fill="#FAA352"/>
<path d="M13.5625 7.4375H16.1875V8.3125H13.5625V7.4375Z" fill="#FAA352"/>
<path d="M13.5625 9.1875H17.9375V10.0625H13.5625V9.1875Z" fill="#FAA352"/>
<path d="M13.5625 10.9375H17.9375V11.8125H13.5625V10.9375Z" fill="#FAA352"/>
<path d="M27.5625 27.4606V19.0312L25.7355 17.661L25.1729 16.2544C24.9734 15.7561 24.6802 15.3116 24.3009 14.9327L21.4375 12.0689V2.625C21.4375 1.41881 20.4562 0.4375 19.25 0.4375H5.25C4.04381 0.4375 3.0625 1.41881 3.0625 2.625V12.8704L1.855 14.0779C0.940625 14.9923 0.4375 16.2076 0.4375 17.5C0.4375 17.7651 0.459812 18.0329 0.503125 18.2954L1.18388 22.3781C1.27838 22.9456 1.43456 23.5034 1.64806 24.0367L2.1875 25.3864V27.5625H8.3125V25.4594L8.61438 24.7047C8.69881 24.4934 8.77056 24.2786 8.83662 24.0625H21.8995L27.5625 27.4606ZM26.6875 25.9144L21.2682 22.6629L25.4161 18.515L26.6875 19.4688V25.9144ZM24.3604 16.5795L24.8618 17.8321L20.4081 22.2862L18.5452 22.0203C17.9826 21.9398 17.4545 21.7048 17.0174 21.3408L16.1289 20.6006C15.6384 20.1919 15.0557 19.9141 14.4379 19.7803V19.6875H13.6084H13.5432C13.3122 19.6875 13.125 19.5003 13.125 19.2701C13.125 19.1306 13.1946 19.0006 13.3109 18.9227L13.4741 18.8138C13.9046 18.5268 14.406 18.375 14.9236 18.375C15.6218 18.375 16.2781 18.6467 16.7716 19.1406L17.1907 19.5593L17.8093 18.9407L17.3906 18.522L11.5185 12.6499C11.4262 12.5571 11.375 12.4342 11.375 12.3029C11.375 12.0326 11.5951 11.8125 11.8654 11.8125C11.9967 11.8125 12.1196 11.8637 12.2124 11.956L15.7124 15.456L17.6282 17.3718L18.2468 16.7532L16.331 14.8374C16.24 14.7459 16.1875 14.6195 16.1875 14.4904C16.1875 14.2201 16.4076 14 16.6779 14C16.8092 14 16.9321 14.0512 17.0249 14.1435L18.9407 16.0593L19.5593 15.4407L17.6435 13.5249C17.5512 13.4321 17.5 13.3092 17.5 13.1779C17.5 12.9076 17.7201 12.6875 17.9904 12.6875C18.1217 12.6875 18.2446 12.7387 18.3374 12.831L19.2124 13.706L20.2532 14.7468L20.8718 14.1282L19.831 13.0874C19.7387 12.9946 19.6875 12.8717 19.6875 12.7404C19.6875 12.4701 19.9076 12.25 20.1779 12.25C20.3092 12.25 20.4321 12.3012 20.5249 12.3935L23.6827 15.5514C23.9776 15.8463 24.2056 16.1919 24.3604 16.5795V16.5795ZM13.5424 20.5625H13.5625V21.4375H10.9375V20.5625H13.5424ZM8.85237 17.0625H10.9375V14.4375H8.3125V15.6708C8.05525 15.4494 7.72362 15.3125 7.36312 15.3125C6.69069 15.3125 6.10706 15.7684 5.94388 16.4207L5.6875 17.4462V4.8125H18.8125V12.0942C18.5762 11.9144 18.2923 11.8125 17.9904 11.8125C17.2537 11.8125 16.6556 12.3996 16.6298 13.1298C16.0948 13.1491 15.638 13.4741 15.4315 13.9379L12.831 11.3374C12.7864 11.2927 12.7365 11.2569 12.6875 11.2192V5.6875H6.5625V11.8125H10.5949C10.5359 11.9652 10.5 12.1297 10.5 12.3029C10.5 12.4359 10.5249 12.5637 10.5612 12.6875H6.5625V13.5625H11.1939L12.0689 14.4375H11.8125V17.0625H14.4375V16.8061L15.1419 17.5105C15.0693 17.5061 14.9971 17.5 14.9236 17.5C14.3338 17.5 13.7638 17.6558 13.2506 17.9375H8.91931L8.85237 17.0625ZM9.1875 16.1875V15.3125H10.0625V16.1875H9.1875ZM9.1875 6.5625H10.0625V7.4375H9.1875V6.5625ZM10.9375 8.3125V6.5625H11.8125V10.9375H7.4375V6.5625H8.3125V8.3125H10.9375ZM12.6875 15.3125H12.9439L13.5625 15.9311V16.1875H12.6875V15.3125ZM3.9375 2.625C3.9375 1.90137 4.52637 1.3125 5.25 1.3125H19.25C19.9736 1.3125 20.5625 1.90137 20.5625 2.625V11.4362C20.4387 11.3999 20.3109 11.375 20.1779 11.375C20.0047 11.375 19.8402 11.4109 19.6875 11.4699V3.9375H4.8125V19.9973C4.75737 20.1167 4.70444 20.2379 4.64538 20.3556C4.58194 20.4833 4.45375 20.5625 4.31113 20.5625C4.10506 20.5625 3.9375 20.3945 3.9375 20.1889V2.625ZM7.4375 26.6875H3.0625V25.8125H7.4375V26.6875ZM7.80194 24.3801L7.57881 24.9375H2.9505L2.4605 23.7116C2.27063 23.2369 2.1315 22.7399 2.04706 22.2346L1.36631 18.1519C1.33087 17.9366 1.3125 17.7174 1.3125 17.5C1.3125 16.4412 1.72462 15.4459 2.47362 14.6969L3.0625 14.1081V20.1889C3.0625 20.8775 3.6225 21.4375 4.31113 21.4375C4.78713 21.4375 5.215 21.1733 5.42806 20.7471C5.87431 19.8551 6.22256 18.9122 6.46494 17.9445L6.79306 16.6329C6.85825 16.3708 7.09275 16.1875 7.36312 16.1875C7.6685 16.1875 7.92619 16.4259 7.94938 16.7304L8.29194 21.1807C8.3055 21.3627 8.3125 21.5456 8.3125 21.7284C8.3125 22.6406 8.14056 23.5327 7.80194 24.3801ZM9.05144 23.1875C9.14025 22.7084 9.1875 22.2211 9.1875 21.7284C9.1875 21.5233 9.17962 21.3181 9.16387 21.1137L8.98712 18.8125H12.3436C12.2885 18.9577 12.25 19.11 12.25 19.2701C12.25 19.4171 12.2798 19.5558 12.3253 19.6875H10.0625V22.3125H14.4375V20.6889C14.8483 20.8053 15.2368 20.9961 15.5684 21.2726L16.457 22.0128C17.0183 22.4805 17.6973 22.7828 18.4209 22.8861L20.4129 23.1704L20.4413 23.1875H9.05144Z" fill="#FAA352"/>
</svg>
